<?xml version="1.0" encoding="UTF-8" standalone="no"?>
<!DOCTYPE svg PUBLIC "-//W3C//DTD SVG 1.1//EN" "http://www.w3.org/Graphics/SVG/1.1/DTD/svg11.dtd">
<!-- Generiert durch Microsoft Visio, SVG Export cot_no_ringleader_vis.svg Page-1 -->
<svg xmlns="http://www.w3.org/2000/svg" xmlns:xlink="http://www.w3.org/1999/xlink" xmlns:ev="http://www.w3.org/2001/xml-events"
		xmlns:v="http://schemas.microsoft.com/visio/2003/SVGExtensions/" width="8.26772in" height="11.6929in"
		viewBox="0 0 595.276 841.89" xml:space="preserve" color-interpolation-filters="sRGB" class="st12">
	<v:documentProperties v:langID="1031" v:metric="true" v:viewMarkup="false">
		<v:userDefs>
			<v:ud v:nameU="msvNoAutoConnect" v:val="VT0(1):26"/>
			<v:ud v:nameU="msvSubprocessMaster" v:prompt="" v:val="VT4(Multiple process)"/>
		</v:userDefs>
	</v:documentProperties>

	<style type="text/css">
	<![CDATA[
		.st1 {fill:url(#grad0-4);stroke:#3d64ac;stroke-width:0.75}
		.st2 {fill:#4672c4;stroke:#c8c8c8;stroke-width:0.25}
		.st3 {marker-end:url(#mrkr4-22);stroke:#4672c4;stroke-linecap:round;stroke-linejoin:round;stroke-width:1}
		.st4 {fill:#4672c4;fill-opacity:1;stroke:#4672c4;stroke-opacity:1;stroke-width:0.28409090909091}
		.st5 {fill:#ffffff;stroke:none;stroke-linecap:butt;stroke-width:7.2}
		.st6 {fill:#3d64ac;font-family:Calibri;font-size:0.666664em}
		.st7 {fill:#ffffff;stroke:none;stroke-linecap:butt}
		.st8 {marker-start:url(#mrkr4-73);stroke:#4672c4;stroke-linecap:round;stroke-linejoin:round;stroke-width:1}
		.st9 {marker-start:url(#mrkr4-81);stroke:#4672c4;stroke-linecap:round;stroke-linejoin:round;stroke-width:1}
		.st10 {fill:none;stroke:none;stroke-width:0.25}
		.st11 {fill:#4672c4;font-family:Calibri;font-size:1.5em}
		.st12 {fill:none;fill-rule:evenodd;font-size:12px;overflow:visible;stroke-linecap:square;stroke-miterlimit:3}
	]]>
	</style>

	<defs id="Patterns_And_Gradients">
		<linearGradient id="grad0-4" x1="0" y1="0" x2="1" y2="0" gradientTransform="rotate(60 0.5 0.5)">
			<stop offset="0" stop-color="#e8ebf4" stop-opacity="1"/>
			<stop offset="0.24" stop-color="#f4f5f9" stop-opacity="1"/>
			<stop offset="0.54" stop-color="#feffff" stop-opacity="1"/>
		</linearGradient>
	</defs>
	<defs id="Markers">
		<g id="lend4">
			<path d="M 2 1 L 0 0 L 2 -1 L 2 1 " style="stroke:none"/>
		</g>
		<marker id="mrkr4-22" class="st4" v:arrowType="4" v:arrowSize="2" v:setback="7.04" refX="-7.04" orient="auto"
				markerUnits="strokeWidth" overflow="visible">
			<use xlink:href="#lend4" transform="scale(-3.52,-3.52) "/>
		</marker>
		<marker id="mrkr4-73" class="st4" v:arrowType="4" v:arrowSize="2" v:setback="6.68" refX="6.68" orient="auto"
				markerUnits="strokeWidth" overflow="visible">
			<use xlink:href="#lend4" transform="scale(3.52) "/>
		</marker>
		<marker id="mrkr4-81" class="st4" v:arrowType="4" v:arrowSize="2" v:setback="0" refX="0" orient="auto"
				markerUnits="strokeWidth" overflow="visible">
			<use xlink:href="#lend4" transform="scale(3.52) "/>
		</marker>
	</defs>
	<g v:mID="0" v:index="1" v:groupContext="foregroundPage">
		<v:userDefs>
			<v:ud v:nameU="msvThemeOrder" v:val="VT0(0):26"/>
		</v:userDefs>
		<title>Zeichenblatt-1</title>
		<v:pageProperties v:drawingScale="0.0393701" v:pageScale="0.0393701" v:drawingUnits="24" v:shadowOffsetX="8.50394"
				v:shadowOffsetY="-8.50394"/>
		<v:layer v:name="Flussdiagramm" v:index="0"/>
		<v:layer v:name="Verbinder" v:index="1"/>
		<g id="shape14-1" v:mID="14" v:groupContext="shape" v:layerMember="0" transform="translate(177.953,-510.236)">
			<title>Zustand</title>
			<v:custProps>
				<v:cp v:nameU="Cost" v:lbl="Kosten" v:type="7" v:format="@" v:langID="1031"/>
				<v:cp v:nameU="Duration" v:lbl="Dauer" v:type="2" v:langID="1031"/>
				<v:cp v:nameU="Resources" v:lbl="Ressourcen" v:langID="1031"/>
			</v:custProps>
			<v:userDefs>
				<v:ud v:nameU="visVersion" v:val="VT0(15):26"/>
			</v:userDefs>
			<path d="M0 685.98 A155.906 155.906 0 0 1 311.81 685.98 A155.906 155.906 0 1 1 0 685.98 Z" class="st1"/>
		</g>
		<g id="shape1-5" v:mID="1" v:groupContext="shape" v:layerMember="0" transform="translate(28.3465,-637.795)">
			<title>Datenverarbeitung</title>
			<v:custProps>
				<v:cp v:nameU="Cost" v:lbl="Kosten" v:type="7" v:format="@" v:langID="1031"/>
				<v:cp v:nameU="Duration" v:lbl="Dauer" v:type="2" v:langID="1031"/>
				<v:cp v:nameU="Resources" v:lbl="Ressourcen" v:langID="1031"/>
			</v:custProps>
			<v:userDefs>
				<v:ud v:nameU="visVersion" v:val="VT0(15):26"/>
			</v:userDefs>
			<path d="M0 813.54 A28.3465 28.3465 0 0 1 56.69 813.54 A28.3465 28.3465 0 1 1 0 813.54 Z" class="st2"/>
		</g>
		<g id="shape2-7" v:mID="2" v:groupContext="shape" v:layerMember="0" transform="translate(291.339,-737.008)">
			<title>Datenverarbeitung.2</title>
			<v:custProps>
				<v:cp v:nameU="Cost" v:lbl="Kosten" v:type="7" v:format="@" v:langID="1031"/>
				<v:cp v:nameU="Duration" v:lbl="Dauer" v:type="2" v:langID="1031"/>
				<v:cp v:nameU="Resources" v:lbl="Ressourcen" v:langID="1031"/>
			</v:custProps>
			<v:userDefs>
				<v:ud v:nameU="visVersion" v:val="VT0(15):26"/>
			</v:userDefs>
			<path d="M0 813.54 A28.3465 28.3465 0 0 1 56.69 813.54 A28.3465 28.3465 0 1 1 0 813.54 Z" class="st2"/>
		</g>
		<g id="shape3-9" v:mID="3" v:groupContext="shape" v:layerMember="0" transform="translate(212.598,-637.795)">
			<title>Datenverarbeitung.3</title>
			<v:custProps>
				<v:cp v:nameU="Cost" v:lbl="Kosten" v:type="7" v:format="@" v:langID="1031"/>
				<v:cp v:nameU="Duration" v:lbl="Dauer" v:type="2" v:langID="1031"/>
				<v:cp v:nameU="Resources" v:lbl="Ressourcen" v:langID="1031"/>
			</v:custProps>
			<v:userDefs>
				<v:ud v:nameU="visVersion" v:val="VT0(15):26"/>
			</v:userDefs>
			<path d="M0 813.54 A28.3465 28.3465 0 0 1 56.69 813.54 A28.3465 28.3465 0 1 1 0 813.54 Z" class="st2"/>
		</g>
		<g id="shape4-11" v:mID="4" v:groupContext="shape" v:layerMember="0" transform="translate(278.74,-548.032)">
			<title>Datenverarbeitung.4</title>
			<v:custProps>
				<v:cp v:nameU="Cost" v:lbl="Kosten" v:type="7" v:format="@" v:langID="1031"/>
				<v:cp v:nameU="Duration" v:lbl="Dauer" v:type="2" v:langID="1031"/>
				<v:cp v:nameU="Resources" v:lbl="Ressourcen" v:langID="1031"/>
			</v:custProps>
			<v:userDefs>
				<v:ud v:nameU="visVersion" v:val="VT0(15):26"/>
			</v:userDefs>
			<path d="M0 813.54 A28.3465 28.3465 0 0 1 56.69 813.54 A28.3465 28.3465 0 1 1 0 813.54 Z" class="st2"/>
		</g>
		<g id="shape5-13" v:mID="5" v:groupContext="shape" v:layerMember="0" transform="translate(396.85,-575.881)">
			<title>Datenverarbeitung.5</title>
			<v:custProps>
				<v:cp v:nameU="Cost" v:lbl="Kosten" v:type="7" v:format="@" v:langID="1031"/>
				<v:cp v:nameU="Duration" v:lbl="Dauer" v:type="2" v:langID="1031"/>
				<v:cp v:nameU="Resources" v:lbl="Ressourcen" v:langID="1031"/>
			</v:custProps>
			<v:userDefs>
				<v:ud v:nameU="visVersion" v:val="VT0(15):26"/>
			</v:userDefs>
			<path d="M0 813.54 A28.3465 28.3465 0 0 1 56.69 813.54 A28.3465 28.3465 0 1 1 0 813.54 Z" class="st2"/>
		</g>
		<g id="shape6-15" v:mID="6" v:groupContext="shape" v:layerMember="0" transform="translate(388.976,-694.488)">
			<title>Datenverarbeitung.6</title>
			<v:custProps>
				<v:cp v:nameU="Cost" v:lbl="Kosten" v:type="7" v:format="@" v:langID="1031"/>
				<v:cp v:nameU="Duration" v:lbl="Dauer" v:type="2" v:langID="1031"/>
				<v:cp v:nameU="Resources" v:lbl="Ressourcen" v:langID="1031"/>
			</v:custProps>
			<v:userDefs>
				<v:ud v:nameU="visVersion" v:val="VT0(15):26"/>
			</v:userDefs>
			<path d="M0 813.54 A28.3465 28.3465 0 0 1 56.69 813.54 A28.3465 28.3465 0 1 1 0 813.54 Z" class="st2"/>
		</g>
		<g id="shape15-17" v:mID="15" v:groupContext="shape" v:layerMember="1" transform="translate(85.0394,-659.055)">
			<title>Dynamischer Verbinder</title>
			<desc>JoinRequest</desc>
			<v:textBlock v:margins="rect(4,4,4,4)" v:tabSpace="42.5197"/>
			<v:textRect cx="63.7795" cy="834.803" width="49.14" height="17.6036"/>
			<path d="M0 834.8 L120.52 834.8" class="st3"/>
			<rect v:rectContext="textBkgnd" x="44.1159" y="830.003" width="39.3275" height="9.59985" class="st5"/>
			<text x="44.12" y="837.2" class="st6" v:langID="1031"><v:paragraph v:horizAlign="1"/><v:tabList/>JoinRequest</text>		</g>
		<g id="shape16-25" v:mID="16" v:groupContext="shape" v:layerMember="1" transform="translate(269.291,-666.142)">
			<title>Dynamischer Verbinder.16</title>
			<desc>JoinRequest</desc>
			<v:textBlock v:margins="rect(4,4,4,4)" v:tabSpace="42.5197"/>
			<v:textRect cx="7.87402" cy="790.056" width="49.14" height="17.6036"/>
			<path d="M0 841.89 L3.94 841.89 A3.93701 3.93701 -180 0 0 7.87 837.95 L7.87 749.76 A7.08661 7.08661 0 0 1 14.96 742.68
						 L15.01 742.68" class="st3"/>
			<rect v:rectContext="textBkgnd" x="-11.7896" y="785.257" width="39.3275" height="9.59985" class="st5"/>
			<text x="-11.79" y="792.46" class="st6" v:langID="1031"><v:paragraph v:horizAlign="1"/><v:tabList/>JoinRequest</text>		</g>
		<g id="shape17-32" v:mID="17" v:groupContext="shape" v:layerMember="1" transform="translate(269.291,-666.142)">
			<title>Dynamischer Verbinder.17</title>
			<desc>JoinRequest</desc>
			<v:textBlock v:margins="rect(4,4,4,4)" v:tabSpace="42.5197"/>
			<v:textRect cx="75.1181" cy="799.37" width="49.14" height="17.6036"/>
			<path d="M0 841.89 L18.5 841.89 A18.5039 18.5039 -180 0 0 37.01 823.39 L37.01 823.39 A26.9996 26.9996 0 0 1 64.01 796.39
						 L93.42 796.39 A5.59469 5.59469 -180 0 0 99.02 790.79 L99.02 790.79 A5.59469 5.59469 0 0 1 104.61 785.2 L112.65
						 785.2" class="st3"/>
			<rect v:rectContext="textBkgnd" x="55.4545" y="794.57" width="39.3275" height="9.59985" class="st5"/>
			<text x="55.45" y="801.77" class="st6" v:langID="1031"><v:paragraph v:horizAlign="1"/><v:tabList/>JoinRequest</text>		</g>
		<g id="shape18-39" v:mID="18" v:groupContext="shape" v:layerMember="1" transform="translate(269.291,-666.142)">
			<title>Dynamischer Verbinder.18</title>
			<desc>JoinRequest</desc>
			<v:textBlock v:margins="rect(4,4,4,4)" v:tabSpace="42.5197"/>
			<v:textRect cx="99.2126" cy="841.89" width="49.14" height="17.6036"/>
			<path d="M0 841.89 L139.12 841.89 A16.7841 16.7841 0 0 1 155.91 858.67 L155.91 868.42" class="st3"/>
			<rect v:rectContext="textBkgnd" x="79.549" y="837.09" width="39.3275" height="9.59985" class="st5"/>
			<text x="79.55" y="844.29" class="st6" v:langID="1031"><v:paragraph v:horizAlign="1"/><v:tabList/>JoinRequest</text>		</g>
		<g id="shape19-46" v:mID="19" v:groupContext="shape" v:layerMember="1" transform="translate(269.291,-666.142)">
			<title>Dynamischer Verbinder.19</title>
			<desc>JoinRequest</desc>
			<v:textBlock v:margins="rect(4,4,4,4)" v:tabSpace="42.5197"/>
			<v:textRect cx="38.2677" cy="870.236" width="49.14" height="17.6036"/>
			<path d="M0 841.89 L18.9 841.89 A18.8976 18.8976 0 0 1 37.8 860.79 L37.8 896.27" class="st3"/>
			<rect v:rectContext="textBkgnd" x="18.6041" y="865.436" width="39.3275" height="9.59985" class="st7"/>
			<text x="18.6" y="872.64" class="st6" v:langID="1031"><v:paragraph v:horizAlign="1"/><v:tabList/>JoinRequest</text>		</g>
		<g id="shape23-53" v:mID="23" v:groupContext="shape" v:layerMember="0" transform="translate(177.953,-141.732)">
			<title>Zustand.23</title>
			<v:custProps>
				<v:cp v:nameU="Cost" v:lbl="Kosten" v:type="7" v:format="@" v:langID="1031"/>
				<v:cp v:nameU="Duration" v:lbl="Dauer" v:type="2" v:langID="1031"/>
				<v:cp v:nameU="Resources" v:lbl="Ressourcen" v:langID="1031"/>
			</v:custProps>
			<v:userDefs>
				<v:ud v:nameU="visVersion" v:val="VT0(15):26"/>
			</v:userDefs>
			<path d="M0 685.98 A155.906 155.906 0 0 1 311.81 685.98 A155.906 155.906 0 1 1 0 685.98 Z" class="st1"/>
		</g>
		<g id="shape24-56" v:mID="24" v:groupContext="shape" v:layerMember="0" transform="translate(28.3465,-269.291)">
			<title>Datenverarbeitung.24</title>
			<v:custProps>
				<v:cp v:nameU="Cost" v:lbl="Kosten" v:type="7" v:format="@" v:langID="1031"/>
				<v:cp v:nameU="Duration" v:lbl="Dauer" v:type="2" v:langID="1031"/>
				<v:cp v:nameU="Resources" v:lbl="Ressourcen" v:langID="1031"/>
			</v:custProps>
			<v:userDefs>
				<v:ud v:nameU="visVersion" v:val="VT0(15):26"/>
			</v:userDefs>
			<path d="M0 813.54 A28.3465 28.3465 0 0 1 56.69 813.54 A28.3465 28.3465 0 1 1 0 813.54 Z" class="st2"/>
		</g>
		<g id="shape25-58" v:mID="25" v:groupContext="shape" v:layerMember="0" transform="translate(291.339,-368.504)">
			<title>Datenverarbeitung.25</title>
			<v:custProps>
				<v:cp v:nameU="Cost" v:lbl="Kosten" v:type="7" v:format="@" v:langID="1031"/>
				<v:cp v:nameU="Duration" v:lbl="Dauer" v:type="2" v:langID="1031"/>
				<v:cp v:nameU="Resources" v:lbl="Ressourcen" v:langID="1031"/>
			</v:custProps>
			<v:userDefs>
				<v:ud v:nameU="visVersion" v:val="VT0(15):26"/>
			</v:userDefs>
			<path d="M0 813.54 A28.3465 28.3465 0 0 1 56.69 813.54 A28.3465 28.3465 0 1 1 0 813.54 Z" class="st2"/>
		</g>
		<g id="shape26-60" v:mID="26" v:groupContext="shape" v:layerMember="0" transform="translate(212.598,-269.291)">
			<title>Datenverarbeitung.26</title>
			<v:custProps>
				<v:cp v:nameU="Cost" v:lbl="Kosten" v:type="7" v:format="@" v:langID="1031"/>
				<v:cp v:nameU="Duration" v:lbl="Dauer" v:type="2" v:langID="1031"/>
				<v:cp v:nameU="Resources" v:lbl="Ressourcen" v:langID="1031"/>
			</v:custProps>
			<v:userDefs>
				<v:ud v:nameU="visVersion" v:val="VT0(15):26"/>
			</v:userDefs>
			<path d="M0 813.54 A28.3465 28.3465 0 0 1 56.69 813.54 A28.3465 28.3465 0 1 1 0 813.54 Z" class="st2"/>
		</g>
		<g id="shape27-62" v:mID="27" v:groupContext="shape" v:layerMember="0" transform="translate(278.74,-179.528)">
			<title>Datenverarbeitung.27</title>
			<v:custProps>
				<v:cp v:nameU="Cost" v:lbl="Kosten" v:type="7" v:format="@" v:langID="1031"/>
				<v:cp v:nameU="Duration" v:lbl="Dauer" v:type="2" v:langID="1031"/>
				<v:cp v:nameU="Resources" v:lbl="Ressourcen" v:langID="1031"/>
			</v:custProps>
			<v:userDefs>
				<v:ud v:nameU="visVersion" v:val="VT0(15):26"/>
			</v:userDefs>
			<path d="M0 813.54 A28.3465 28.3465 0 0 1 56.69 813.54 A28.3465 28.3465 0 1 1 0 813.54 Z" class="st2"/>
		</g>
		<g id="shape28-64" v:mID="28" v:groupContext="shape" v:layerMember="0" transform="translate(396.85,-207.377)">
			<title>Datenverarbeitung.28</title>
			<v:custProps>
				<v:cp v:nameU="Cost" v:lbl="Kosten" v:type="7" v:format="@" v:langID="1031"/>
				<v:cp v:nameU="Duration" v:lbl="Dauer" v:type="2" v:langID="1031"/>
				<v:cp v:nameU="Resources" v:lbl="Ressourcen" v:langID="1031"/>
			</v:custProps>
			<v:userDefs>
				<v:ud v:nameU="visVersion" v:val="VT0(15):26"/>
			</v:userDefs>
			<path d="M0 813.54 A28.3465 28.3465 0 0 1 56.69 813.54 A28.3465 28.3465 0 1 1 0 813.54 Z" class="st2"/>
		</g>
		<g id="shape29-66" v:mID="29" v:groupContext="shape" v:layerMember="0" transform="translate(388.976,-325.984)">
			<title>Datenverarbeitung.29</title>
			<v:custProps>
				<v:cp v:nameU="Cost" v:lbl="Kosten" v:type="7" v:format="@" v:langID="1031"/>
				<v:cp v:nameU="Duration" v:lbl="Dauer" v:type="2" v:langID="1031"/>
				<v:cp v:nameU="Resources" v:lbl="Ressourcen" v:langID="1031"/>
			</v:custProps>
			<v:userDefs>
				<v:ud v:nameU="visVersion" v:val="VT0(15):26"/>
			</v:userDefs>
			<path d="M0 813.54 A28.3465 28.3465 0 0 1 56.69 813.54 A28.3465 28.3465 0 1 1 0 813.54 Z" class="st2"/>
		</g>
		<g id="shape30-68" v:mID="30" v:groupContext="shape" v:layerMember="1" transform="translate(85.0394,-290.551)">
			<title>Dynamischer Verbinder.30</title>
			<desc>JoinRequestAnswer</desc>
			<v:textBlock v:margins="rect(4,4,4,4)" v:tabSpace="42.5197"/>
			<v:textRect cx="49.3228" cy="834.803" width="73.59" height="17.6036"/>
			<path d="M6.68 834.8 L7.04 834.8 L127.56 834.8" class="st8"/>
			<rect v:rectContext="textBkgnd" x="17.4347" y="830.003" width="63.7765" height="9.59985" class="st5"/>
			<text x="17.43" y="837.2" class="st6" v:langID="1031"><v:paragraph v:horizAlign="1"/><v:tabList/>JoinRequestAnswer</text>		</g>
		<g id="shape31-76" v:mID="31" v:groupContext="shape" v:layerMember="1" transform="translate(269.291,-297.638)">
			<title>Dynamischer Verbinder.31</title>
			<desc>JoinRequestAnswer</desc>
			<v:textBlock v:margins="rect(4,4,4,4)" v:tabSpace="42.5197"/>
			<v:textRect cx="7.87402" cy="789.134" width="73.59" height="17.6036"/>
			<path d="M0 841.89 L3.94 841.89 A3.93701 3.93701 -180 0 0 7.87 837.95 L7.87 749.76 A7.08661 7.08661 0 0 1 14.96 742.68
						 L22.05 742.68" class="st9"/>
			<rect v:rectContext="textBkgnd" x="-24.0141" y="784.334" width="63.7765" height="9.59985" class="st5"/>
			<text x="-24.01" y="791.53" class="st6" v:langID="1031"><v:paragraph v:horizAlign="1"/><v:tabList/>JoinRequestAnswer</text>		</g>
		<g id="shape32-84" v:mID="32" v:groupContext="shape" v:layerMember="1" transform="translate(269.291,-297.638)">
			<title>Dynamischer Verbinder.32</title>
			<desc>JoinRequestAnswer</desc>
			<v:textBlock v:margins="rect(4,4,4,4)" v:tabSpace="42.5197"/>
			<v:textRect cx="75.1181" cy="799.37" width="73.59" height="17.6036"/>
			<path d="M6.68 841.89 L7.04 841.89 L18.5 841.89 A18.5039 18.5039 -180 0 0 37.01 823.39 L37.01 823.39 A26.9996 26.9996
						 0 0 1 64.01 796.39 L93.42 796.39 A5.59469 5.59469 -180 0 0 99.02 790.79 L99.02 790.79 A5.59469 5.59469 0
						 0 1 104.61 785.2 L119.69 785.2" class="st8"/>
			<rect v:rectContext="textBkgnd" x="43.23" y="794.57" width="63.7765" height="9.59985" class="st5"/>
			<text x="43.23" y="801.77" class="st6" v:langID="1031"><v:paragraph v:horizAlign="1"/><v:tabList/>JoinRequestAnswer</text>		</g>
		<g id="shape33-91" v:mID="33" v:groupContext="shape" v:layerMember="1" transform="translate(269.291,-297.638)">
			<title>Dynamischer Verbinder.33</title>
			<desc>JoinRequestAnswer</desc>
			<v:textBlock v:margins="rect(4,4,4,4)" v:tabSpace="42.5197"/>
			<v:textRect cx="99.2126" cy="841.89" width="73.59" height="17.6036"/>
			<path d="M6.68 841.89 L7.04 841.89 L139.12 841.89 A16.7841 16.7841 0 0 1 155.91 858.67 L155.91 875.46" class="st8"/>
			<rect v:rectContext="textBkgnd" x="67.3245" y="837.09" width="63.7765" height="9.59985" class="st7"/>
			<text x="67.32" y="844.29" class="st6" v:langID="1031"><v:paragraph v:horizAlign="1"/><v:tabList/>JoinRequestAnswer</text>		</g>
		<g id="shape34-98" v:mID="34" v:groupContext="shape" v:layerMember="1" transform="translate(269.291,-297.638)">
			<title>Dynamischer Verbinder.34</title>
			<desc>JoinRequestAnswer</desc>
			<v:textBlock v:margins="rect(4,4,4,4)" v:tabSpace="42.5197"/>
			<v:textRect cx="38.2677" cy="870.236" width="73.59" height="17.6036"/>
			<path d="M6.68 841.89 L7.04 841.89 L18.9 841.89 A18.8976 18.8976 0 0 1 37.8 860.79 L37.8 903.31" class="st8"/>
			<rect v:rectContext="textBkgnd" x="6.3796" y="865.436" width="63.7765" height="9.59985" class="st7"/>
			<text x="6.38" y="872.64" class="st6" v:langID="1031"><v:paragraph v:horizAlign="1"/><v:tabList/>JoinRequestAnswer</text>		</g>
		<g id="shape39-105" v:mID="39" v:groupContext="shape" transform="translate(28.3465,-789.874)">
			<title>Tabelle.39</title>
			<desc>1. JoinRequest</desc>
			<v:textBlock v:margins="rect(1,1,1,1)" v:tabSpace="42.5197"/>
			<v:textRect cx="63.7795" cy="824.882" width="127.56" height="34.0157"/>
			<rect x="0" y="807.874" width="127.559" height="34.0157" class="st10"/>
			<text x="10.67" y="830.28" class="st11" v:langID="1031"><v:paragraph v:horizAlign="1"/><v:tabList/>1. JoinRequest</text>		</g>
		<g id="shape42-108" v:mID="42" v:groupContext="shape" transform="translate(28.3465,-425.197)">
			<title>Tabelle.42</title>
			<desc>2. JoinRequestAnswer</desc>
			<v:textBlock v:margins="rect(1,1,1,1)" v:tabSpace="42.5197"/>
			<v:textRect cx="85.0394" cy="824.882" width="170.08" height="34.0157"/>
			<rect x="0" y="807.874" width="170.079" height="34.0157" class="st10"/>
			<text x="4.42" y="830.28" class="st11" v:langID="1031"><v:paragraph v:horizAlign="1"/><v:tabList/>2. JoinRequestAnswer</text>		</g>
	</g>
</svg>
