<?xml version="1.0" encoding="UTF-8" standalone="no"?>
<!DOCTYPE svg PUBLIC "-//W3C//DTD SVG 1.1//EN" "http://www.w3.org/Graphics/SVG/1.1/DTD/svg11.dtd">
<!-- Generiert durch Microsoft Visio, SVG Export subscribe.svg Page-1 -->
<svg xmlns="http://www.w3.org/2000/svg" xmlns:xlink="http://www.w3.org/1999/xlink" xmlns:ev="http://www.w3.org/2001/xml-events"
		xmlns:v="http://schemas.microsoft.com/visio/2003/SVGExtensions/" width="3.63293in" height="2.9402in"
		viewBox="0 0 261.571 211.694" xml:space="preserve" color-interpolation-filters="sRGB" class="st10">
	<v:documentProperties v:langID="1031" v:metric="true" v:viewMarkup="false">
		<v:userDefs>
			<v:ud v:nameU="msvNoAutoConnect" v:prompt="" v:val="VT0(1):26"/>
		</v:userDefs>
	</v:documentProperties>

	<style type="text/css">
	<![CDATA[
		.st1 {fill:#5b9bd5;stroke:#ffffff;stroke-linecap:round;stroke-linejoin:round;stroke-width:0.5}
		.st2 {stroke:#5592c9;stroke-dasharray:3.5,2.5;stroke-linecap:round;stroke-linejoin:round;stroke-width:0.5}
		.st3 {fill:#ffffff;font-family:Calibri;font-size:1.00001em;font-weight:bold}
		.st4 {font-size:1em}
		.st5 {fill:#73ae42;stroke:#6ca43d;stroke-linecap:round;stroke-linejoin:round;stroke-width:0.5}
		.st6 {marker-end:url(#mrkr4-37);stroke:#6ca43d;stroke-linecap:round;stroke-linejoin:round;stroke-width:0.5}
		.st7 {fill:#6ca43d;fill-opacity:1;stroke:#6ca43d;stroke-opacity:1;stroke-width:0.13368983957219}
		.st8 {fill:#ffffff;stroke:none;stroke-linecap:butt;stroke-width:7.2}
		.st9 {fill:#53802e;font-family:Calibri;font-size:0.666664em}
		.st10 {fill:none;fill-rule:evenodd;font-size:12px;overflow:visible;stroke-linecap:square;stroke-miterlimit:3}
	]]>
	</style>

	<defs id="Markers">
		<g id="lend4">
			<path d="M 2 1 L 0 0 L 2 -1 L 2 1 " style="stroke:none"/>
		</g>
		<marker id="mrkr4-37" class="st7" v:arrowType="4" v:arrowSize="3" v:setback="14.96" refX="-14.96" orient="auto"
				markerUnits="strokeWidth" overflow="visible">
			<use xlink:href="#lend4" transform="scale(-7.48,-7.48) "/>
		</marker>
	</defs>
	<g v:mID="0" v:index="1" v:groupContext="foregroundPage">
		<v:userDefs>
			<v:ud v:nameU="msvThemeOrder" v:val="VT0(0):26"/>
		</v:userDefs>
		<title>Zeichenblatt-1</title>
		<v:pageProperties v:drawingScale="0.0393701" v:pageScale="0.0393701" v:drawingUnits="24" v:shadowOffsetX="8.50394"
				v:shadowOffsetY="-8.50394"/>
		<v:layer v:name="Verbinder" v:index="0"/>
		<g id="group1-1" transform="translate(18.25,-119.035)" v:mID="1" v:groupContext="group">
			<v:userDefs>
				<v:ud v:nameU="visVersion" v:prompt="" v:val="VT0(15):26"/>
				<v:ud v:nameU="ShowActor" v:prompt="" v:val="VT0(1):5"/>
				<v:ud v:nameU="ShowDestruction" v:prompt="" v:val="VT0(0):5"/>
			</v:userDefs>
			<title>Akteur-Lebenslinie</title>
			<desc>Any instance</desc>
			<g id="shape2-2" v:mID="2" v:groupContext="shape" transform="translate(12.7559,-5.66929)">
				<title>Tabelle.2</title>
				<rect x="0" y="186.183" width="51.0236" height="25.5118" class="st1"/>
			</g>
			<g id="shape3-4" v:mID="3" v:groupContext="shape" transform="translate(29.7638,-40.3937)">
				<title>Tabelle.3</title>
				<path d="M3.4 211.69 L3.4 194.69 L3.4 201.49 L0 201.49 L0 187.88 L1.7 186.18 L15.31 186.18 L17.01 187.88 L17.01 201.49
							 L13.61 201.49 L13.61 194.69 L13.61 211.69 L8.5 211.69 L8.5 198.09 L8.5 211.69 L3.4 211.69 ZM11.91 181.08
							 A3.40157 3.40157 -180 1 0 5.1 181.08 A3.40157 3.40157 -180 1 0 11.91 181.08 Z" class="st1"/>
			</g>
			<g id="shape4-6" v:mID="4" v:groupContext="shape" transform="translate(25.5118,101.035)">
				<title>Tabelle.4</title>
			</g>
			<g id="shape5-8" v:mID="5" v:groupContext="shape" transform="translate(249.962,211.694) rotate(90)">
				<title>Tabelle.5</title>
				<path d="M0 211.69 L79.37 211.69" class="st2"/>
			</g>
			<g id="shape1-11" v:mID="1" v:groupContext="groupContent">
				<v:textBlock v:margins="rect(4,4,4,4)" v:tabSpace="42.5197"/>
				<v:textRect cx="38.2677" cy="193.269" width="76.54" height="36.8504"/>
				<rect x="0" y="174.844" width="76.5354" height="36.8504" class="st1"/>
				<text x="6.33" y="196.87" class="st3" v:langID="1031"><v:paragraph v:horizAlign="1"/><v:tabList/>Any instance</text>			</g>
		</g>
		<g id="group6-14" transform="translate(166.785,-119.035)" v:mID="6" v:groupContext="group">
			<v:userDefs>
				<v:ud v:nameU="visVersion" v:prompt="" v:val="VT0(15):26"/>
				<v:ud v:nameU="ShowActor" v:prompt="" v:val="VT0(1):5"/>
				<v:ud v:nameU="ShowDestruction" v:prompt="" v:val="VT0(0):5"/>
			</v:userDefs>
			<title>Akteur-Lebenslinie.6</title>
			<desc>Any other instance</desc>
			<g id="shape7-15" v:mID="7" v:groupContext="shape" transform="translate(12.7559,-5.66929)">
				<title>Tabelle.7</title>
				<rect x="0" y="186.183" width="51.0236" height="25.5118" class="st1"/>
			</g>
			<g id="shape8-17" v:mID="8" v:groupContext="shape" transform="translate(29.7638,-40.3937)">
				<title>Tabelle.8</title>
				<path d="M3.4 211.69 L3.4 194.69 L3.4 201.49 L0 201.49 L0 187.88 L1.7 186.18 L15.31 186.18 L17.01 187.88 L17.01 201.49
							 L13.61 201.49 L13.61 194.69 L13.61 211.69 L8.5 211.69 L8.5 198.09 L8.5 211.69 L3.4 211.69 ZM11.91 181.08
							 A3.40157 3.40157 -180 1 0 5.1 181.08 A3.40157 3.40157 -180 1 0 11.91 181.08 Z" class="st1"/>
			</g>
			<g id="shape9-19" v:mID="9" v:groupContext="shape" transform="translate(25.5118,101.035)">
				<title>Tabelle.9</title>
			</g>
			<g id="shape10-21" v:mID="10" v:groupContext="shape" transform="translate(249.962,211.694) rotate(90)">
				<title>Tabelle.10</title>
				<path d="M0 211.69 L79.37 211.69" class="st2"/>
			</g>
			<g id="shape6-24" v:mID="6" v:groupContext="groupContent">
				<v:textBlock v:margins="rect(4,4,4,4)" v:tabSpace="42.5197"/>
				<v:textRect cx="38.2677" cy="193.269" width="76.54" height="36.8504"/>
				<rect x="0" y="174.844" width="76.5354" height="36.8504" class="st1"/>
				<text x="13.54" y="189.67" class="st3" v:langID="1031"><v:paragraph v:horizAlign="1"/><v:tabList/>Any other <tspan
							x="17.39" dy="1.2em" class="st4">instance</tspan></text>			</g>
		</g>
		<g id="shape11-28" v:mID="11" v:groupContext="shape" transform="translate(-150.925,155.022) rotate(-90)">
			<title>Aktivierung</title>
			<v:userDefs>
				<v:ud v:nameU="visVersion" v:prompt="" v:val="VT0(15):26"/>
			</v:userDefs>
			<rect x="0" y="203.19" width="45.3543" height="8.50394" class="st5"/>
		</g>
		<g id="shape12-30" v:mID="12" v:groupContext="shape" transform="translate(-2.3892,155.022) rotate(-90)">
			<title>Aktivierung.12</title>
			<v:userDefs>
				<v:ud v:nameU="visVersion" v:prompt="" v:val="VT0(15):26"/>
			</v:userDefs>
			<rect x="0" y="203.19" width="45.3543" height="8.50394" class="st5"/>
		</g>
		<g id="shape13-32" v:mID="13" v:groupContext="shape" v:layerMember="0" transform="translate(60.7697,-77.9325)">
			<title>Nachricht</title>
			<desc>Subscribe</desc>
			<v:userDefs>
				<v:ud v:nameU="IsReturn" v:prompt="" v:val="VT0(0):5"/>
				<v:ud v:nameU="IsAsync" v:prompt="" v:val="VT0(0):26"/>
				<v:ud v:nameU="IsSelfMessage" v:prompt="" v:val="VT0(0):5"/>
				<v:ud v:nameU="visVersion" v:prompt="" v:val="VT0(15):26"/>
			</v:userDefs>
			<v:textBlock v:margins="rect(4,4,4,4)" v:tabSpace="42.5197"/>
			<v:textRect cx="70.0157" cy="204.608" width="41.22" height="17.6036"/>
			<path d="M0 204.61 L132.55 204.61" class="st6"/>
			<rect v:rectContext="textBkgnd" x="54.3149" y="199.808" width="31.4019" height="9.59985" class="st8"/>
			<text x="54.31" y="207.01" class="st9" v:langID="1031"><v:paragraph v:horizAlign="1"/><v:tabList/>Subscribe</text>		</g>
	</g>
</svg>
